<svg xmlns="http://www.w3.org/2000/svg" xmlns:xlink="http://www.w3.org/1999/xlink" width="500" zoomAndPan="magnify" viewBox="0 0 375 374.999991" height="500" preserveAspectRatio="xMidYMid meet" version="1.0"><defs><g/><clipPath id="dfa6909b33"><rect x="0" width="332" y="0" height="50"/></clipPath></defs><path fill="#ffffff" d="M 154.003906 152.449219 C 154.003906 158.40625 158.835938 163.246094 164.792969 163.246094 C 170.753906 163.246094 175.609375 158.40625 175.609375 152.449219 C 175.609375 146.488281 170.753906 141.636719 164.792969 141.636719 C 158.835938 141.632812 154.003906 146.488281 154.003906 152.449219 Z M 154.003906 152.449219 " fill-opacity="1" fill-rule="nonzero"/><path fill="#ffffff" d="M 221.402344 152.449219 C 221.402344 146.488281 216.558594 141.636719 210.609375 141.636719 C 204.640625 141.636719 199.78125 146.488281 199.78125 152.449219 C 199.78125 158.40625 204.640625 163.246094 210.609375 163.246094 C 216.558594 163.246094 221.402344 158.402344 221.402344 152.449219 Z M 221.402344 152.449219 " fill-opacity="1" fill-rule="nonzero"/><path fill="#ffffff" d="M 36.066406 245.308594 C 56.339844 261.1875 101.1875 269.53125 120.582031 269.75 C 120.703125 269.75 120.816406 269.75 120.9375 269.75 C 139.210938 269.75 157.359375 253.5625 158.40625 236.246094 C 158.734375 230.890625 157.554688 215.117188 135.109375 207.878906 L 106.160156 161.320312 C 108.761719 160.820312 111.195312 160.519531 113.421875 160.414062 C 130.125 184.769531 158.128906 200.792969 189.824219 200.792969 C 194.984375 200.792969 199.175781 196.613281 199.175781 191.449219 C 199.175781 186.28125 194.984375 182.09375 189.824219 182.09375 C 153.679688 182.09375 123.578125 156.003906 117.210938 121.664062 C 140.523438 128.417969 171.890625 133.160156 186.539062 133.160156 C 220.964844 133.160156 245.847656 127.390625 262.5 121.371094 C 257.890625 146.472656 240.402344 168.082031 216.039062 177.320312 C 211.214844 179.152344 208.792969 184.558594 210.617188 189.382812 C 212.039062 193.113281 215.59375 195.414062 219.351562 195.414062 C 220.460938 195.414062 221.582031 195.214844 222.671875 194.800781 C 240.652344 187.980469 255.660156 175.773438 266.140625 160.46875 C 284.222656 161.839844 315.488281 175.734375 328.308594 188.480469 C 334.382812 194.515625 340.253906 205.011719 339.671875 214.847656 C 339.304688 221.09375 336.421875 226.242188 330.851562 230.597656 C 315.0625 242.972656 274.480469 250.878906 257.632812 251.0625 C 248.253906 251.15625 239.101562 242.03125 238.695312 235.128906 C 238.167969 226.5 254.9375 223.984375 260.082031 223.414062 C 274.417969 221.835938 284.046875 216.765625 295.15625 210.292969 C 299.613281 207.691406 301.121094 201.96875 298.515625 197.503906 C 295.90625 193.042969 290.199219 191.542969 285.738281 194.140625 C 274.558594 200.660156 267.90625 203.746094 258.035156 204.828125 C 221.253906 208.878906 219.65625 229.90625 220.039062 236.25 C 221.089844 253.566406 239.234375 269.753906 257.488281 269.753906 C 257.609375 269.753906 257.726562 269.753906 257.847656 269.753906 C 263.429688 269.6875 271.15625 268.929688 279.746094 267.535156 L 298.347656 303.164062 L 82.167969 303.164062 C 77.003906 303.164062 72.820312 307.347656 72.820312 312.515625 C 72.820312 317.675781 77.003906 321.863281 82.167969 321.863281 L 313.761719 321.863281 C 317.03125 321.863281 320.058594 320.148438 321.765625 317.355469 C 323.453125 314.5625 323.554688 311.082031 322.050781 308.191406 L 298.808594 263.636719 C 315.308594 259.535156 332.050781 253.417969 342.378906 245.3125 C 352.132812 237.6875 357.65625 227.527344 358.339844 215.945312 C 359.332031 199.246094 350.285156 183.957031 341.496094 175.214844 C 327.238281 161.0625 297.910156 147.15625 275.582031 142.953125 C 279.503906 133.347656 281.789062 123.027344 282.289062 112.382812 C 286.527344 109.933594 288.722656 108.195312 289.050781 107.933594 C 291.199219 106.199219 292.464844 103.597656 292.523438 100.839844 C 292.71875 89.566406 281.398438 63.175781 277.925781 55.359375 C 275.851562 50.691406 270.417969 48.550781 265.714844 50.554688 C 264.886719 50.910156 264.035156 51.261719 263.167969 51.617188 C 245.667969 28.949219 218.667969 15.574219 189.828125 15.574219 C 160.992188 15.574219 134.285156 28.8125 116.789062 51.3125 C 115.183594 50.78125 113.539062 50.246094 112.148438 49.710938 C 107.40625 47.878906 102.078125 50.175781 100.15625 54.875 C 94.132812 69.492188 84.667969 95.714844 88.902344 107.082031 C 89.820312 109.570312 92.9375 112.027344 97.550781 114.378906 C 98.210938 124.347656 100.410156 133.886719 103.992188 142.75 C 101.320312 143.21875 98.578125 143.796875 95.730469 144.535156 L 72.257812 106.789062 C 69.53125 102.398438 63.765625 101.0625 59.390625 103.78125 C 55.007812 106.507812 53.671875 112.269531 56.390625 116.65625 L 77.519531 150.648438 C 61.679688 157.046875 46.167969 166.074219 36.964844 175.214844 C 28.171875 183.957031 19.125 199.246094 20.109375 215.945312 C 20.792969 227.523438 26.308594 237.683594 36.066406 245.308594 Z M 189.824219 34.265625 C 210.4375 34.265625 229.785156 42.910156 243.660156 57.6875 C 231.5625 60.421875 215.609375 62.359375 193.085938 62.359375 L 189.421875 62.339844 C 170.480469 62.167969 152.117188 59.808594 137.011719 56.648438 C 150.777344 42.5 169.609375 34.265625 189.824219 34.265625 Z M 114.109375 70.558594 C 114.3125 70.714844 160.867188 81.667969 189.242188 81.027344 L 193.085938 81.046875 C 228.570312 81.046875 249.453125 76.460938 264.347656 71.160156 C 268.175781 80.507812 271.65625 90.195312 273.105469 96.074219 C 263.242188 101.78125 235.765625 115.035156 186.546875 114.464844 C 149.679688 114.039062 106.824219 98.585938 106.453125 98.421875 C 106.875 93.058594 109.917969 82.023438 114.109375 70.558594 Z M 50.132812 188.476562 C 58.050781 180.609375 73.011719 172.320312 87.554688 166.777344 L 109.765625 202.515625 C 104.59375 200.761719 99.480469 198.085938 92.710938 194.136719 C 88.253906 191.542969 82.535156 193.054688 79.925781 197.5 C 77.328125 201.964844 78.828125 207.6875 83.292969 210.289062 C 94.398438 216.757812 104.023438 221.839844 118.363281 223.410156 C 123.511719 223.976562 140.265625 226.496094 139.746094 235.117188 C 139.335938 242.027344 129.683594 251.035156 120.789062 251.058594 C 103.957031 250.875 63.378906 242.96875 47.585938 230.59375 C 42.019531 226.238281 39.136719 221.089844 38.761719 214.84375 C 38.183594 205.007812 44.058594 194.511719 50.132812 188.476562 Z M 50.132812 188.476562 " fill-opacity="1" fill-rule="nonzero"/><path fill="#ffffff" d="M 279.273438 42.265625 C 280.421875 42.734375 281.609375 42.949219 282.773438 42.949219 C 286.46875 42.949219 289.964844 40.742188 291.441406 37.105469 L 297.664062 21.71875 C 299.597656 16.933594 297.277344 11.484375 292.5 9.554688 C 287.6875 7.605469 282.269531 9.941406 280.328125 14.714844 L 274.113281 30.105469 C 272.167969 34.882812 274.488281 40.332031 279.273438 42.265625 Z M 279.273438 42.265625 " fill-opacity="1" fill-rule="nonzero"/><path fill="#ffffff" d="M 294.472656 58.394531 C 296.316406 60.816406 299.097656 62.089844 301.917969 62.089844 C 303.894531 62.089844 305.875 61.464844 307.570312 60.1875 L 325.507812 46.566406 C 329.617188 43.445312 330.417969 37.585938 327.289062 33.46875 C 324.179688 29.355469 318.320312 28.558594 314.207031 31.679688 L 296.265625 45.292969 C 292.15625 48.417969 291.355469 54.277344 294.472656 58.394531 Z M 294.472656 58.394531 " fill-opacity="1" fill-rule="nonzero"/><path fill="#ffffff" d="M 300.269531 76.152344 C 300.117188 81.308594 304.179688 85.609375 309.347656 85.761719 L 329.835938 86.355469 C 329.925781 86.355469 330.019531 86.355469 330.105469 86.355469 C 335.140625 86.355469 339.296875 82.34375 339.4375 77.277344 C 339.589844 72.121094 335.53125 67.8125 330.363281 67.664062 L 309.875 67.074219 C 304.589844 66.90625 300.421875 70.992188 300.269531 76.152344 Z M 300.269531 76.152344 " fill-opacity="1" fill-rule="nonzero"/><g transform="matrix(1, 0, 0, 1, 21, 320)"><g clip-path="url(#dfa6909b33)"><g fill="#ffffff" fill-opacity="1"><g transform="translate(2.879811, 36.640472)"><g><path d="M 10.625 0.484375 C 8.382812 0.484375 6.34375 0.164062 4.5 -0.46875 C 2.65625 -1.113281 1.03125 -2.34375 -0.375 -4.15625 L 4.578125 -8.890625 C 5.285156 -8.054688 6.0625 -7.425781 6.90625 -7 C 7.75 -6.570312 8.59375 -6.28125 9.4375 -6.125 C 10.28125 -5.976562 11.066406 -5.90625 11.796875 -5.90625 C 13.140625 -5.90625 14.242188 -6.128906 15.109375 -6.578125 C 15.984375 -7.035156 16.421875 -7.664062 16.421875 -8.46875 C 16.421875 -9.65625 15.070312 -10.390625 12.375 -10.671875 C 10.675781 -10.847656 9.113281 -11.15625 7.6875 -11.59375 C 6.269531 -12.03125 5.128906 -12.738281 4.265625 -13.71875 C 3.410156 -14.707031 2.984375 -16.070312 2.984375 -17.8125 C 2.984375 -19.425781 3.347656 -20.816406 4.078125 -21.984375 C 4.816406 -23.160156 5.796875 -24.128906 7.015625 -24.890625 C 8.242188 -25.648438 9.597656 -26.210938 11.078125 -26.578125 C 12.566406 -26.941406 14.082031 -27.125 15.625 -27.125 C 17.613281 -27.125 19.363281 -26.882812 20.875 -26.40625 C 22.394531 -25.925781 23.757812 -25.117188 24.96875 -23.984375 L 20.421875 -19.328125 C 19.617188 -20.015625 18.726562 -20.46875 17.75 -20.6875 C 16.78125 -20.914062 15.71875 -21.03125 14.5625 -21.03125 C 13.9375 -21.03125 13.3125 -20.953125 12.6875 -20.796875 C 12.070312 -20.648438 11.5625 -20.40625 11.15625 -20.0625 C 10.75 -19.726562 10.546875 -19.28125 10.546875 -18.71875 C 10.546875 -17.988281 10.914062 -17.484375 11.65625 -17.203125 C 12.40625 -16.929688 13.363281 -16.742188 14.53125 -16.640625 C 15.707031 -16.515625 16.851562 -16.296875 17.96875 -15.984375 C 19.082031 -15.671875 20.082031 -15.222656 20.96875 -14.640625 C 21.863281 -14.054688 22.578125 -13.320312 23.109375 -12.4375 C 23.640625 -11.5625 23.90625 -10.492188 23.90625 -9.234375 C 23.90625 -7.515625 23.546875 -6.035156 22.828125 -4.796875 C 22.109375 -3.566406 21.125 -2.5625 19.875 -1.78125 C 18.625 -1 17.203125 -0.425781 15.609375 -0.0625 C 14.023438 0.300781 12.363281 0.484375 10.625 0.484375 Z M 10.625 0.484375 "/></g></g></g><g fill="#ffffff" fill-opacity="1"><g transform="translate(28.138335, 36.640472)"><g><path d="M 0.75 0 L 5.40625 -26.484375 L 25.578125 -26.484375 L 24.46875 -20.203125 L 11.6875 -20.203125 L 11.046875 -16.421875 L 23.078125 -16.421875 L 21.984375 -10.328125 L 9.953125 -10.328125 L 9.234375 -6.3125 L 23.03125 -6.3125 L 21.9375 0 Z M 0.75 0 "/></g></g></g><g fill="#ffffff" fill-opacity="1"><g transform="translate(53.321239, 36.640472)"><g><path d="M -2.421875 0 L 14.109375 -26.484375 L 21.671875 -26.484375 L 28.859375 0 L 21.0625 0 L 20.09375 -4.34375 L 8.25 -4.34375 L 5.75 0 Z M 11.921875 -10.625 L 18.6875 -10.625 L 16.796875 -18.875 Z M 11.921875 -10.625 "/></g></g></g><g fill="#ffffff" fill-opacity="1"><g transform="translate(83.533157, 36.640472)"><g><path d="M 0.75 0 L 5.40625 -26.484375 L 13.203125 -26.484375 L 18.5 -17.515625 L 27.125 -26.484375 L 34.953125 -26.484375 L 30.296875 0 L 22.890625 0 L 25.765625 -16.1875 L 22.28125 -12.453125 L 17.484375 -7.75 L 16.15625 -7.75 L 13.28125 -12.140625 L 10.890625 -16.1875 L 8.171875 0 Z M 0.75 0 "/></g></g></g><g fill="#ffffff" fill-opacity="1"><g transform="translate(118.471594, 36.640472)"><g><path d="M 14.21875 0.484375 C 11.625 0.484375 9.375 0.0195312 7.46875 -0.90625 C 5.5625 -1.84375 4.082031 -3.1875 3.03125 -4.9375 C 1.988281 -6.6875 1.46875 -8.8125 1.46875 -11.3125 C 1.46875 -13.757812 1.898438 -15.957031 2.765625 -17.90625 C 3.640625 -19.863281 4.851562 -21.53125 6.40625 -22.90625 C 7.957031 -24.28125 9.773438 -25.328125 11.859375 -26.046875 C 13.941406 -26.765625 16.191406 -27.125 18.609375 -27.125 C 21.203125 -27.125 23.453125 -26.65625 25.359375 -25.71875 C 27.265625 -24.789062 28.738281 -23.445312 29.78125 -21.6875 C 30.832031 -19.9375 31.359375 -17.816406 31.359375 -15.328125 C 31.359375 -12.828125 30.925781 -10.597656 30.0625 -8.640625 C 29.207031 -6.691406 28.003906 -5.035156 26.453125 -3.671875 C 24.910156 -2.304688 23.097656 -1.269531 21.015625 -0.5625 C 18.929688 0.132812 16.664062 0.484375 14.21875 0.484375 Z M 14.9375 -5.90625 C 16.65625 -5.90625 18.175781 -6.296875 19.5 -7.078125 C 20.820312 -7.859375 21.867188 -8.925781 22.640625 -10.28125 C 23.410156 -11.644531 23.796875 -13.1875 23.796875 -14.90625 C 23.796875 -16.695312 23.269531 -18.113281 22.21875 -19.15625 C 21.175781 -20.207031 19.722656 -20.734375 17.859375 -20.734375 C 16.210938 -20.734375 14.722656 -20.347656 13.390625 -19.578125 C 12.054688 -18.804688 11 -17.75 10.21875 -16.40625 C 9.4375 -15.070312 9.046875 -13.550781 9.046875 -11.84375 C 9.046875 -10.070312 9.570312 -8.640625 10.625 -7.546875 C 11.6875 -6.453125 13.125 -5.90625 14.9375 -5.90625 Z M 14.9375 -5.90625 "/></g></g></g><g fill="#ffffff" fill-opacity="1"><g transform="translate(150.574119, 36.640472)"><g><path d="M 10.625 0.484375 C 8.382812 0.484375 6.34375 0.164062 4.5 -0.46875 C 2.65625 -1.113281 1.03125 -2.34375 -0.375 -4.15625 L 4.578125 -8.890625 C 5.285156 -8.054688 6.0625 -7.425781 6.90625 -7 C 7.75 -6.570312 8.59375 -6.28125 9.4375 -6.125 C 10.28125 -5.976562 11.066406 -5.90625 11.796875 -5.90625 C 13.140625 -5.90625 14.242188 -6.128906 15.109375 -6.578125 C 15.984375 -7.035156 16.421875 -7.664062 16.421875 -8.46875 C 16.421875 -9.65625 15.070312 -10.390625 12.375 -10.671875 C 10.675781 -10.847656 9.113281 -11.15625 7.6875 -11.59375 C 6.269531 -12.03125 5.128906 -12.738281 4.265625 -13.71875 C 3.410156 -14.707031 2.984375 -16.070312 2.984375 -17.8125 C 2.984375 -19.425781 3.347656 -20.816406 4.078125 -21.984375 C 4.816406 -23.160156 5.796875 -24.128906 7.015625 -24.890625 C 8.242188 -25.648438 9.597656 -26.210938 11.078125 -26.578125 C 12.566406 -26.941406 14.082031 -27.125 15.625 -27.125 C 17.613281 -27.125 19.363281 -26.882812 20.875 -26.40625 C 22.394531 -25.925781 23.757812 -25.117188 24.96875 -23.984375 L 20.421875 -19.328125 C 19.617188 -20.015625 18.726562 -20.46875 17.75 -20.6875 C 16.78125 -20.914062 15.71875 -21.03125 14.5625 -21.03125 C 13.9375 -21.03125 13.3125 -20.953125 12.6875 -20.796875 C 12.070312 -20.648438 11.5625 -20.40625 11.15625 -20.0625 C 10.75 -19.726562 10.546875 -19.28125 10.546875 -18.71875 C 10.546875 -17.988281 10.914062 -17.484375 11.65625 -17.203125 C 12.40625 -16.929688 13.363281 -16.742188 14.53125 -16.640625 C 15.707031 -16.515625 16.851562 -16.296875 17.96875 -15.984375 C 19.082031 -15.671875 20.082031 -15.222656 20.96875 -14.640625 C 21.863281 -14.054688 22.578125 -13.320312 23.109375 -12.4375 C 23.640625 -11.5625 23.90625 -10.492188 23.90625 -9.234375 C 23.90625 -7.515625 23.546875 -6.035156 22.828125 -4.796875 C 22.109375 -3.566406 21.125 -2.5625 19.875 -1.78125 C 18.625 -1 17.203125 -0.425781 15.609375 -0.0625 C 14.023438 0.300781 12.363281 0.484375 10.625 0.484375 Z M 10.625 0.484375 "/></g></g></g><g fill="#ffffff" fill-opacity="1"><g transform="translate(175.832643, 36.640472)"><g><path d="M 13.625 0.609375 C 11.40625 0.609375 9.507812 0.296875 7.9375 -0.328125 C 6.375 -0.960938 5.109375 -1.828125 4.140625 -2.921875 C 3.171875 -4.023438 2.460938 -5.265625 2.015625 -6.640625 C 1.578125 -8.015625 1.359375 -9.429688 1.359375 -10.890625 C 1.359375 -12.859375 1.722656 -14.800781 2.453125 -16.71875 C 3.191406 -18.632812 4.285156 -20.378906 5.734375 -21.953125 C 7.179688 -23.535156 8.976562 -24.789062 11.125 -25.71875 C 13.269531 -26.65625 15.753906 -27.125 18.578125 -27.125 C 20.367188 -27.125 22.078125 -26.835938 23.703125 -26.265625 C 25.328125 -25.703125 26.832031 -24.5625 28.21875 -22.84375 L 23.265625 -18.765625 C 22.453125 -19.671875 21.53125 -20.242188 20.5 -20.484375 C 19.46875 -20.722656 18.445312 -20.84375 17.4375 -20.84375 C 14.863281 -20.84375 12.804688 -20.082031 11.265625 -18.5625 C 9.734375 -17.050781 8.863281 -14.847656 8.65625 -11.953125 C 8.613281 -10.972656 8.789062 -9.992188 9.1875 -9.015625 C 9.59375 -8.046875 10.257812 -7.238281 11.1875 -6.59375 C 12.125 -5.957031 13.328125 -5.640625 14.796875 -5.640625 C 15.492188 -5.640625 16.34375 -5.742188 17.34375 -5.953125 C 18.34375 -6.171875 19.269531 -6.554688 20.125 -7.109375 L 20.65625 -10.359375 L 13.953125 -10.359375 L 15.015625 -16.234375 L 27.953125 -16.234375 L 25.90625 -4.609375 C 25.175781 -3.503906 24.164062 -2.5625 22.875 -1.78125 C 21.59375 -1 20.15625 -0.40625 18.5625 0 C 16.976562 0.40625 15.332031 0.609375 13.625 0.609375 Z M 13.625 0.609375 "/></g></g></g><g fill="#ffffff" fill-opacity="1"><g transform="translate(204.456448, 36.640472)"><g><path d="M 0.75 0 L 5.40625 -26.484375 L 25.578125 -26.484375 L 24.46875 -20.203125 L 11.6875 -20.203125 L 11.046875 -16.421875 L 23.078125 -16.421875 L 21.984375 -10.328125 L 9.953125 -10.328125 L 9.234375 -6.3125 L 23.03125 -6.3125 L 21.9375 0 Z M 0.75 0 "/></g></g></g><g fill="#ffffff" fill-opacity="1"><g transform="translate(229.639353, 36.640472)"><g><path d="M 0.75 0 L 5.40625 -26.484375 L 11.765625 -26.484375 L 20.421875 -11.609375 C 20.628906 -13.203125 20.78125 -14.4375 20.875 -15.3125 C 20.976562 -16.195312 21.066406 -16.894531 21.140625 -17.40625 L 22.734375 -26.484375 L 30.265625 -26.484375 L 25.609375 0 L 19.25 0 L 10.703125 -14.265625 L 9.796875 -8.46875 L 8.328125 0 Z M 0.75 0 "/></g></g></g><g fill="#ffffff" fill-opacity="1"><g transform="translate(259.889088, 36.640472)"><g><path d="M 0.75 0 L 5.40625 -26.484375 L 12.859375 -26.484375 L 8.203125 0 Z M 0.75 0 "/></g></g></g><g fill="#ffffff" fill-opacity="1"><g transform="translate(272.745225, 36.640472)"><g><path d="M 14.21875 0.484375 C 11.625 0.484375 9.375 0.0195312 7.46875 -0.90625 C 5.5625 -1.84375 4.082031 -3.1875 3.03125 -4.9375 C 1.988281 -6.6875 1.46875 -8.8125 1.46875 -11.3125 C 1.46875 -13.757812 1.898438 -15.957031 2.765625 -17.90625 C 3.640625 -19.863281 4.851562 -21.53125 6.40625 -22.90625 C 7.957031 -24.28125 9.773438 -25.328125 11.859375 -26.046875 C 13.941406 -26.765625 16.191406 -27.125 18.609375 -27.125 C 21.203125 -27.125 23.453125 -26.65625 25.359375 -25.71875 C 27.265625 -24.789062 28.738281 -23.445312 29.78125 -21.6875 C 30.832031 -19.9375 31.359375 -17.816406 31.359375 -15.328125 C 31.359375 -12.828125 30.925781 -10.597656 30.0625 -8.640625 C 29.207031 -6.691406 28.003906 -5.035156 26.453125 -3.671875 C 24.910156 -2.304688 23.097656 -1.269531 21.015625 -0.5625 C 18.929688 0.132812 16.664062 0.484375 14.21875 0.484375 Z M 14.9375 -5.90625 C 16.65625 -5.90625 18.175781 -6.296875 19.5 -7.078125 C 20.820312 -7.859375 21.867188 -8.925781 22.640625 -10.28125 C 23.410156 -11.644531 23.796875 -13.1875 23.796875 -14.90625 C 23.796875 -16.695312 23.269531 -18.113281 22.21875 -19.15625 C 21.175781 -20.207031 19.722656 -20.734375 17.859375 -20.734375 C 16.210938 -20.734375 14.722656 -20.347656 13.390625 -19.578125 C 12.054688 -18.804688 11 -17.75 10.21875 -16.40625 C 9.4375 -15.070312 9.046875 -13.550781 9.046875 -11.84375 C 9.046875 -10.070312 9.570312 -8.640625 10.625 -7.546875 C 11.6875 -6.453125 13.125 -5.90625 14.9375 -5.90625 Z M 14.9375 -5.90625 "/></g></g></g><g fill="#ffffff" fill-opacity="1"><g transform="translate(304.847751, 36.640472)"><g><path d="M 10.625 0.484375 C 8.382812 0.484375 6.34375 0.164062 4.5 -0.46875 C 2.65625 -1.113281 1.03125 -2.34375 -0.375 -4.15625 L 4.578125 -8.890625 C 5.285156 -8.054688 6.0625 -7.425781 6.90625 -7 C 7.75 -6.570312 8.59375 -6.28125 9.4375 -6.125 C 10.28125 -5.976562 11.066406 -5.90625 11.796875 -5.90625 C 13.140625 -5.90625 14.242188 -6.128906 15.109375 -6.578125 C 15.984375 -7.035156 16.421875 -7.664062 16.421875 -8.46875 C 16.421875 -9.65625 15.070312 -10.390625 12.375 -10.671875 C 10.675781 -10.847656 9.113281 -11.15625 7.6875 -11.59375 C 6.269531 -12.03125 5.128906 -12.738281 4.265625 -13.71875 C 3.410156 -14.707031 2.984375 -16.070312 2.984375 -17.8125 C 2.984375 -19.425781 3.347656 -20.816406 4.078125 -21.984375 C 4.816406 -23.160156 5.796875 -24.128906 7.015625 -24.890625 C 8.242188 -25.648438 9.597656 -26.210938 11.078125 -26.578125 C 12.566406 -26.941406 14.082031 -27.125 15.625 -27.125 C 17.613281 -27.125 19.363281 -26.882812 20.875 -26.40625 C 22.394531 -25.925781 23.757812 -25.117188 24.96875 -23.984375 L 20.421875 -19.328125 C 19.617188 -20.015625 18.726562 -20.46875 17.75 -20.6875 C 16.78125 -20.914062 15.71875 -21.03125 14.5625 -21.03125 C 13.9375 -21.03125 13.3125 -20.953125 12.6875 -20.796875 C 12.070312 -20.648438 11.5625 -20.40625 11.15625 -20.0625 C 10.75 -19.726562 10.546875 -19.28125 10.546875 -18.71875 C 10.546875 -17.988281 10.914062 -17.484375 11.65625 -17.203125 C 12.40625 -16.929688 13.363281 -16.742188 14.53125 -16.640625 C 15.707031 -16.515625 16.851562 -16.296875 17.96875 -15.984375 C 19.082031 -15.671875 20.082031 -15.222656 20.96875 -14.640625 C 21.863281 -14.054688 22.578125 -13.320312 23.109375 -12.4375 C 23.640625 -11.5625 23.90625 -10.492188 23.90625 -9.234375 C 23.90625 -7.515625 23.546875 -6.035156 22.828125 -4.796875 C 22.109375 -3.566406 21.125 -2.5625 19.875 -1.78125 C 18.625 -1 17.203125 -0.425781 15.609375 -0.0625 C 14.023438 0.300781 12.363281 0.484375 10.625 0.484375 Z M 10.625 0.484375 "/></g></g></g></g></g><path stroke-linecap="round" transform="matrix(0.740415, -0.119521, 0.119521, 0.740415, 178.444416, 186.875189)" fill="none" stroke-linejoin="miter" d="M 13.209581 12.5306 C 24.197338 15.93977 39.883633 15.375042 60.25387 10.828785 " stroke="#ffffff" stroke-width="18" stroke-opacity="1" stroke-miterlimit="4"/><path stroke-linecap="round" transform="matrix(0.737106, -0.138473, 0.138473, 0.737106, 173.883099, 181.213303)" fill="none" stroke-linejoin="miter" d="M 11.889219 11.493723 C 27.198521 15.419019 45.428458 15.165884 66.57295 10.738476 " stroke="#ffffff" stroke-width="18" stroke-opacity="1" stroke-miterlimit="4"/><path stroke-linecap="round" transform="matrix(0.397302, -0.636122, 0.636122, 0.397302, 53.653859, 313.597655)" fill="none" stroke-linejoin="miter" d="M 13.99982 13.999009 L 90.622768 13.997317 " stroke="#ffffff" stroke-width="28" stroke-opacity="1" stroke-miterlimit="4"/><path stroke-linecap="round" transform="matrix(0.75, 0, 0, 0.75, 108.674477, 285.87672)" fill="none" stroke-linejoin="miter" d="M 5.00174 4.997706 L 98.725704 4.997706 " stroke="#ffffff" stroke-width="10" stroke-opacity="1" stroke-miterlimit="4"/><path stroke-linecap="round" transform="matrix(0.75, 0, 0, 0.75, 196.654854, 285.87672)" fill="none" stroke-linejoin="miter" d="M 5.001862 4.997706 L 98.725826 4.997706 " stroke="#ffffff" stroke-width="10" stroke-opacity="1" stroke-miterlimit="4"/><path stroke-linecap="round" transform="matrix(0.75, 0, 0, 0.75, 150.377265, 264.951429)" fill="none" stroke-linejoin="miter" d="M 5.002189 5.002262 L 38.127191 5.002262 " stroke="#ffffff" stroke-width="10" stroke-opacity="1" stroke-miterlimit="4"/><path stroke-linecap="round" transform="matrix(0.75, 0, 0, 0.75, 195.827305, 264.951429)" fill="none" stroke-linejoin="miter" d="M 5.001093 5.002262 L 38.126096 5.002262 " stroke="#ffffff" stroke-width="10" stroke-opacity="1" stroke-miterlimit="4"/><path stroke-linecap="round" transform="matrix(0.75, 0, 0, 0.75, 58.197517, 302.580772)" fill="none" stroke-linejoin="miter" d="M 14.00227 14.00168 L 338.445 14.00168 " stroke="#ffffff" stroke-width="28" stroke-opacity="1" stroke-miterlimit="4"/></svg>